<svg width="20" height="20" viewBox="0 0 20 20" fill="none" xmlns="http://www.w3.org/2000/svg">
<g clip-path="url(#clip0)">
<path d="M10 19.999C15.5228 19.999 20 15.5218 20 9.999C20 4.47615 15.5228 -0.000999451 10 -0.000999451C4.47715 -0.000999451 0 4.47615 0 9.999C0 15.5218 4.47715 19.999 10 19.999Z" fill="#F7F7EB"/>
<path d="M3.48154 10.4482C3.44606 12.1688 4.63113 13.8108 6.26131 14.3462C7.79684 14.8621 9.68478 14.4762 10.7066 13.1612C11.4526 12.2398 11.6221 11.0114 11.5414 9.86373C10.2263 9.85197 8.91132 9.85589 7.59826 9.85785C7.59612 10.3263 7.59826 10.793 7.60022 11.2615C8.38759 11.2832 9.17514 11.2732 9.96251 11.2891C9.76375 11.9702 9.31097 12.6041 8.62378 12.8501C7.297 13.4348 5.60407 12.671 5.18659 11.2791C4.68265 9.94627 5.50763 8.33783 6.86971 7.95012C7.7143 7.65296 8.58439 7.98755 9.30705 8.42661C9.6732 8.08399 10.0158 7.71785 10.3524 7.34778C9.5313 6.66077 8.47619 6.23954 7.39148 6.33206C5.26324 6.35737 3.40078 8.32215 3.48154 10.4482Z" fill="#F7F7EB"/>
<path d="M14.1008 8.67553C14.0969 9.06734 14.0928 9.46112 14.0908 9.85275C13.697 9.85668 13.3054 9.85864 12.9136 9.8606C12.9136 10.2524 12.9136 10.6421 12.9136 11.0339C13.3054 11.0359 13.6992 11.0378 14.0908 11.0419C14.0947 11.4337 14.0947 11.8254 14.0986 12.2191C14.4885 12.2191 14.8803 12.2172 15.2719 12.2191C15.2741 11.8254 15.2759 11.4337 15.28 11.04C15.6716 11.038 16.0654 11.036 16.4572 11.0341C16.4572 10.6423 16.4572 10.2526 16.4572 9.86078C16.0656 9.85882 15.6718 9.85685 15.28 9.85293C15.2778 9.46112 15.2741 9.06734 15.2719 8.67571C14.8803 8.67553 14.4905 8.67553 14.1008 8.67553Z" fill="#F7F7EB"/>
<path d="M3.48154 10.4474C3.40078 8.32133 5.26306 6.35655 7.3913 6.33106C8.47601 6.23854 9.53131 6.65977 10.3522 7.34678C10.0155 7.71703 9.67284 8.08299 9.30688 8.42561C8.58421 7.98655 7.71413 7.65196 6.86954 7.94912C5.50728 8.33701 4.68229 9.94545 5.18641 11.2781C5.60389 12.67 7.29682 13.4338 8.62361 12.8491C9.31062 12.6031 9.76358 11.9692 9.96234 11.2881C9.17497 11.2724 8.38742 11.2822 7.60004 11.2605C7.59808 10.792 7.59612 10.3253 7.59808 9.85685C8.91114 9.85489 10.2262 9.85097 11.5412 9.86274C11.6219 11.0105 11.4526 12.2389 10.7064 13.1602C9.68461 14.4752 7.79684 14.8611 6.26114 14.3453C4.63131 13.8099 3.44606 12.168 3.48154 10.4474Z" fill="#DC4E41"/>
<path d="M14.1008 8.67553C14.4906 8.67553 14.8803 8.67553 15.2719 8.67553C15.2741 9.06734 15.2778 9.46112 15.28 9.85276C15.6716 9.85668 16.0654 9.85864 16.4572 9.8606C16.4572 10.2524 16.4572 10.6421 16.4572 11.0339C16.0656 11.0359 15.6718 11.0378 15.28 11.0398C15.276 11.4336 15.2741 11.8252 15.2719 12.219C14.8803 12.217 14.4883 12.219 14.0986 12.219C14.0949 11.8252 14.0949 11.4336 14.0908 11.0417C13.6992 11.0376 13.3054 11.0359 12.9136 11.0337C12.9136 10.6419 12.9136 10.2522 12.9136 9.86042C13.3054 9.85846 13.6972 9.8565 14.0908 9.85258C14.0928 9.46112 14.0967 9.06734 14.1008 8.67553Z" fill="#DC4E41"/>
</g>
<defs>
<clipPath id="clip0">
<rect width="20" height="20" fill="white"/>
</clipPath>
</defs>
</svg>
