<svg width="50" height="50" viewBox="0 0 20 20" fill="none" xmlns="http://www.w3.org/2000/svg">
<rect width="20" height="20" rx="1" fill="white"/>
<path d="M18.4351 12.1976V12.7591L15.3285 13.8821L12.4496 13.814L6.73359 13.6785L3.46713 13.6013L2.33747 12.4783C2.33747 12.4783 2.21427 11.1027 2.33747 9.95164C2.35442 9.79162 2.38054 9.60562 2.41337 9.40349C2.47127 9.04448 2.54964 8.63425 2.63436 8.22612C2.86806 7.10314 3.14976 5.99701 3.18471 6.02122L7.3076 5.29795C7.49924 5.26436 7.69668 5.29738 7.86672 5.39145C8.03676 5.48552 8.16904 5.63491 8.24133 5.81452L8.3084 5.98121L9.01197 7.72955L9.1154 7.98643C9.1154 7.98643 10.5169 8.84375 11.9208 9.56491C12.4959 9.8604 13.0713 10.1331 13.5511 10.3149C13.7613 10.3982 13.9779 10.4645 14.1988 10.5131C14.2889 10.531 14.3824 10.5489 14.4788 10.5668C15.355 10.7293 16.45 10.8858 17.1547 10.9809C17.3757 11.0109 17.586 11.094 17.7674 11.223C17.9488 11.3521 18.0958 11.5231 18.1957 11.7214L18.4351 12.1976Z" fill="white"/>
<path d="M18.4352 12.1961V12.7576L15.3287 13.8805L12.4498 13.8125L10.8101 13.5998L12.787 11.7258C12.787 11.7258 14.4398 11.8122 15.3287 11.7258C15.9507 11.6655 16.864 11.2875 17.4097 11.0391C17.7517 11.1542 18.0343 11.3989 18.1959 11.7199L18.4352 12.1961Z" fill="#FF0000"/>
<path d="M6.73359 13.6774L3.46713 13.6002L2.33747 12.4772C2.33747 12.4772 2.21427 11.1015 2.33747 9.9505C2.35442 9.79047 2.38054 9.60448 2.41337 9.40234L5.44402 10.7927L6.73359 13.6774Z" fill="#FF0000"/>
<path d="M13.5511 10.3141L12.5044 11.3546C12.5044 11.3546 11.0924 11.0739 9.39787 10.2316C7.70339 9.38939 6.57373 7.70493 6.57373 7.70493L8.30846 5.98047L9.01202 7.7288L9.11545 7.98568C9.11545 7.98568 9.28737 8.09096 9.5712 8.25835C9.71347 8.34257 9.88362 8.44224 10.0746 8.55243C10.249 8.65314 10.441 8.76228 10.644 8.87633C10.8085 8.96863 10.9808 9.06408 11.1577 9.16024C11.9615 9.59749 12.8567 10.0512 13.5511 10.3141V10.3141Z" fill="#FF0000"/>
<path d="M18.7176 13.0375C17.588 13.599 15.3287 14.722 11.9397 14.722C9.29897 14.722 4.94344 14.5516 3.14895 14.4764C2.93065 14.4671 2.72437 14.3744 2.57319 14.2176C2.42201 14.0608 2.33762 13.852 2.33765 13.6348V12.4761C2.33765 12.4761 8.55075 13.0375 11.9397 13.0375C15.3287 13.0375 17.3056 12.7568 18.4352 12.1953L18.7176 13.0375Z" fill="#D9D9D9"/>
<path d="M9.01213 7.72954C8.36682 8.21488 7.03806 9.1094 6.00901 9.1094C5.82128 9.10748 5.63393 9.09211 5.44842 9.06343C4.50092 8.92376 3.32396 8.49843 2.63452 8.22611C2.68783 7.97063 2.74325 7.71621 2.79797 7.47547C2.98366 6.65851 3.15805 6.00262 3.18488 6.02122L7.30776 5.29795C7.49941 5.26436 7.69684 5.29738 7.86688 5.39145C8.03692 5.48552 8.16921 5.63491 8.24149 5.81452L8.28456 5.92155L8.56309 6.61394L9.01213 7.72954Z" fill="#4E4E4E"/>
<path d="M8.56309 6.61035L5.44842 9.05984C4.50092 8.92017 3.32396 8.49485 2.63452 8.22253C2.68783 7.96705 2.74325 7.71262 2.79797 7.47189L8.28456 5.91797L8.56309 6.61035Z" fill="#FF0000"/>
<path d="M14.479 10.5644L12.1992 13.0367L10.2646 13.0037C10.6957 12.5409 11.4578 11.6667 11.6573 11.0722C11.826 10.5697 11.8938 9.96677 11.921 9.5625C12.3136 9.76429 12.7065 9.95554 13.069 10.1138C13.2374 10.1879 13.3991 10.2549 13.5512 10.3124C13.5802 10.3233 13.6084 10.3342 13.6367 10.344C13.8196 10.4136 14.0076 10.4693 14.199 10.5107C14.289 10.5286 14.3826 10.5465 14.479 10.5644V10.5644Z" fill="#FF0000"/>
<path d="M18.9855 12.946L18.7031 12.1038C18.6988 12.0912 18.6936 12.079 18.6875 12.0672H18.6878L18.4483 11.5908C18.3279 11.3517 18.1506 11.1454 17.9318 10.9897C17.713 10.8341 17.4593 10.7338 17.1928 10.6976C16.5878 10.616 15.4375 10.4539 14.5308 10.2858C14.4355 10.2682 14.3432 10.2504 14.2542 10.2327C14.0549 10.1931 13.7863 10.1049 13.4559 9.9703C13.0682 9.81238 12.5954 9.59045 12.0505 9.31055C11.7404 9.1514 11.3996 8.96927 11.0373 8.76921C10.6984 8.58216 10.3377 8.37711 9.96514 8.15985C9.67507 7.99049 9.4538 7.85767 9.3427 7.79057L8.50355 5.70534C8.40647 5.46639 8.22998 5.2677 8.00347 5.14236C7.77695 5.01702 7.51409 4.97259 7.25863 5.01647L3.15022 5.73721C3.12638 5.73991 3.10298 5.74563 3.0806 5.75423C2.92143 5.81557 2.88997 5.93457 2.77284 6.3773C2.69955 6.65429 2.61074 7.02045 2.52276 7.40823C2.46921 7.64406 2.41375 7.89827 2.35787 8.16434C2.26457 8.61388 2.18944 9.01419 2.13469 9.35368C2.09992 9.56775 2.07366 9.75725 2.05675 9.91689C1.93672 11.0377 2.04241 12.3376 2.05516 12.4857V13.6321C2.05445 13.9219 2.16676 14.2007 2.36849 14.4099C2.57022 14.6192 2.84567 14.7425 3.13698 14.7541C4.90401 14.828 9.29949 15 11.9396 15C15.3953 15 17.7245 13.8423 18.8439 13.2859C18.9047 13.2557 18.9525 13.2047 18.9785 13.1422C19.0045 13.0798 19.007 13.0101 18.9855 12.946V12.946ZM17.9432 11.8418L18.0514 12.0572C17.0139 12.4828 15.3383 12.7047 12.8475 12.7465L13.508 12.0302C13.7453 12.0367 14.0104 12.0416 14.2767 12.0416C14.6625 12.0416 15.0501 12.0315 15.356 12.0017C15.9606 11.9431 16.7908 11.6201 17.4179 11.3401C17.6461 11.4418 17.8318 11.6192 17.9432 11.8418V11.8418ZM8.11692 6.25592L8.22283 6.51862L5.37133 8.76135C4.55907 8.62392 3.58806 8.28619 2.96047 8.04626C2.98635 7.92578 3.01205 7.80811 3.03739 7.69434L8.11692 6.25592ZM6.21984 8.80977L8.44149 7.06246L8.66901 7.62781C8.10859 8.03239 7.06602 8.70671 6.21984 8.80977V8.80977ZM2.61843 9.97602C2.6239 9.92443 2.6305 9.86913 2.63809 9.8107L5.22924 10.9994L5.88864 12.4741C4.38143 12.367 3.11086 12.2591 2.60173 12.2147C2.57356 11.779 2.52908 10.8108 2.61843 9.97602V9.97602ZM6.52651 12.5184L5.70221 10.6748C5.67435 10.6126 5.6247 10.5625 5.56249 10.5339L2.72751 9.23335C2.761 9.0398 2.80013 8.82992 2.84489 8.60371C3.60709 8.89207 4.58378 9.21468 5.40737 9.33578L5.41246 9.33645C5.60984 9.36699 5.8092 9.38325 6.00895 9.38512C6.43458 9.38512 6.89947 9.24984 7.35084 9.05321C7.9682 9.67208 8.61355 10.1512 9.27157 10.4784C9.90969 10.7947 10.5694 11.066 11.2458 11.2902C11.0362 11.6637 10.6527 12.1612 10.1447 12.7157C9.12189 12.6777 7.90628 12.6113 6.52651 12.5184V12.5184ZM11.9251 11.1585C12.0505 10.7851 12.1228 10.3642 12.1647 9.99767C12.4118 10.12 12.642 10.2288 12.8551 10.324L12.5872 10.5904L12.9866 10.9874L13.4173 10.5593C13.6121 10.6342 13.7844 10.6922 13.937 10.734L12.0745 12.7538C12.0296 12.7538 11.9851 12.7542 11.9396 12.7542C11.6249 12.7542 11.2693 12.7491 10.8778 12.739C11.3242 12.2204 11.7686 11.6249 11.9251 11.1585V11.1585ZM14.5815 10.8659C15.162 10.9703 15.8128 11.0701 16.3913 11.1531C16.0117 11.2926 15.6125 11.4128 15.3011 11.4429C14.9426 11.4777 14.449 11.483 14.0168 11.4784L14.5815 10.8659ZM9.36519 8.45912L8.9158 8.90586L9.3152 9.3029L9.86792 8.75345C10.0618 8.86556 10.2515 8.97379 10.437 9.07813L10.0455 9.46735L10.4449 9.86439L10.9497 9.36256C11.1855 9.49142 11.4113 9.61214 11.6248 9.72331C11.5967 10.0754 11.5392 10.4245 11.4529 10.7671C10.7919 10.5495 10.1473 10.2852 9.52412 9.9764C8.97694 9.70433 8.41656 9.29736 7.88707 8.79026C8.23544 8.59911 8.57227 8.38786 8.89582 8.15761C8.91586 8.18255 8.94003 8.20392 8.96731 8.22077C8.96946 8.22172 9.11921 8.31328 9.36519 8.45912ZM7.35652 5.56943C7.44971 5.55346 7.54543 5.5609 7.63498 5.59106C7.72454 5.62123 7.80509 5.67317 7.86932 5.74216L3.18125 7.06965C3.27303 6.68686 3.34572 6.41254 3.38953 6.26536L7.35652 5.56943ZM11.9396 14.4385C9.31023 14.4385 4.9243 14.2669 3.16067 14.1931C3.01504 14.1873 2.87736 14.1256 2.77654 14.021C2.67572 13.9163 2.6196 13.777 2.61998 13.6321V12.78C3.22883 12.8326 4.67066 12.9541 6.31826 13.0671C7.83373 13.1706 9.15811 13.2428 10.2547 13.2817C10.8966 13.3042 11.4635 13.3155 11.9396 13.3155C12.0276 13.3155 12.1145 13.3153 12.2003 13.3148C15.1622 13.302 17.0603 13.073 18.2664 12.5771L18.3721 12.8922C17.2217 13.4578 15.0517 14.4385 11.9396 14.4385V14.4385Z" fill="black"/>
</svg>
